<svg id="Layer_2" data-name="Layer 2" xmlns="http://www.w3.org/2000/svg" viewBox="0 0 399.93 399.93"><defs><style>.cls-1{fill:#0f573a;stroke:#bb9a4f;stroke-miterlimit:10;stroke-width:6px;}.cls-2{fill:#bb9a4f;}</style></defs><path class="cls-1" d="M40.58,232.33S-5.35,206.49,4.39,160.66C22.48,96.31,89.29,107,89.29,107s-13-21-7.89-52.65S117.12,8.55,136.14,5.63c44.07-7.8,67.27,15.6,67.27,15.6S232.17-4.12,270.8,5c31.42,8.4,68.07,37.16,43,94.2,0,0,69.58-6.82,80.72,47.78s-19,66.79-30.16,76.05c0,0,21.34,55.58-8.81,83.37s-77,27.79-117.37-11.21c0,0,1.86,57.52-26.44,88.24s-74.69,2.44-82.58-19.5c0,0,58.92-37.54,48.71-71.18,0,0-28.3,34.61-74.69,38C103.2,330.81,1.61,325.93,40.58,232.33Z" transform="translate(-0.04 -0.04)"/><path class="cls-2" d="M369.39,244.89H36a50.64,50.64,0,0,1,4.57-12.56s-20.2-12.93-26.25-24.59H383.27s-15.69,14.66-18.89,15.32C364.38,223.06,370.25,237.54,369.39,244.89Z" transform="translate(-0.04 -0.04)"/><path class="cls-2" d="M94.5,30.21l2.6,300.2s44.19,3.35,83.21-37.63L176.14,6.89S128.63-7.37,94.5,30.21Z" transform="translate(-0.04 -0.04)"/></svg>