<svg xmlns="http://www.w3.org/2000/svg" viewBox="0 0 708.08 152.24"><defs><style>.cls-1{fill:#fff;stroke:#bb9a4e;stroke-width:2px;}.cls-1,.cls-2{stroke-miterlimit:10;}.cls-2{fill:#0f573a;stroke:#bb9a4f;stroke-width:3px;}.cls-3{fill:#bb9a4f;}</style></defs><g id="Layer_1" data-name="Layer 1"><path class="cls-1" d="M171.75,143.36V9.3h26.54l11.88,64.21V9.3H235.1V143.36H209.88L197,76.33v67Z" transform="translate(-9.55 -3.46)"/><path class="cls-1" d="M248,143.36V9.3h35.49q13.94,0,21,8t7,23.5V103.6q0,19.05-6.42,29.4t-22.47,10.36Zm26-23.69h4.47q7.11,0,7.11-7.16V43.35q0-6.7-1.72-8.65t-7-1.94H274Z" transform="translate(-9.55 -3.46)"/><path class="cls-1" d="M354.25,144.58q-17.67,0-25.48-9.14T321,106.34V93.24h25.52V110a16,16,0,0,0,1.36,7.27,4.85,4.85,0,0,0,4.72,2.63q3.53,0,4.88-2.13t1.36-7a38.25,38.25,0,0,0-1.18-10.32,23.32,23.32,0,0,0-4.06-7.92,87.82,87.82,0,0,0-8-8.8L333.94,72.29Q321,59.57,321,43.2q0-17.15,7.66-26.13t22.19-9q17.73,0,25.18,9.83t7.45,29.86H357.18V38.55a5.83,5.83,0,0,0-1.5-4.27,6.4,6.4,0,0,0-8.58.27,7.17,7.17,0,0,0-1.43,4.61,14.94,14.94,0,0,0,1.47,6.09,26.86,26.86,0,0,0,5.79,7.54l14.89,14.86A87,87,0,0,1,376,77a40.88,40.88,0,0,1,6,11.42,48.45,48.45,0,0,1,2.28,15.89q0,18.88-6.71,29.59T354.25,144.58Z" transform="translate(-9.55 -3.46)"/><path class="cls-1" d="M394.4,143.36V9.3h39.3L444.55,91,455.33,9.3H495V143.36H471.39V46.78l-14.81,96.58H433.41l-15.7-96.58v96.58Z" transform="translate(-9.55 -3.46)"/><path class="cls-1" d="M504.42,143.36,516.89,9.3h43.77l12.25,134.06H548.49l-1.83-21.63H531.11l-1.61,21.63Zm28.52-43h11.74L539,32.15h-1.17Z" transform="translate(-9.55 -3.46)"/><path class="cls-1" d="M613,144.58q-17.67,0-25.48-9.14t-7.81-29.1V93.24h25.52V110a16.1,16.1,0,0,0,1.35,7.27,4.86,4.86,0,0,0,4.73,2.63c2.35,0,4-.71,4.88-2.13s1.35-3.76,1.35-7a38.69,38.69,0,0,0-1.17-10.32,23.35,23.35,0,0,0-4.07-7.92,86.61,86.61,0,0,0-8-8.8L592.67,72.29q-13-12.72-13-29.09,0-17.15,7.66-26.13t22.18-9q17.75,0,25.19,9.83t7.44,29.86H615.91V38.55a5.83,5.83,0,0,0-1.5-4.27,6.4,6.4,0,0,0-8.58.27,7.17,7.17,0,0,0-1.43,4.61,14.94,14.94,0,0,0,1.47,6.09,26.48,26.48,0,0,0,5.79,7.54l14.88,14.86A88.22,88.22,0,0,1,634.76,77a41.14,41.14,0,0,1,6,11.42A48.74,48.74,0,0,1,643,104.29q0,18.88-6.71,29.59T613,144.58Z" transform="translate(-9.55 -3.46)"/><path class="cls-1" d="M653.12,143.36V9.3h25.67V57.21H691V9.3h25.66V143.36H691V82.58H678.79v60.78Z" transform="translate(-9.55 -3.46)"/></g><g id="Layer_2" data-name="Layer 2"><path class="cls-2" d="M25.27,91.82S7.87,82,11.56,64.67C18.41,40.3,43.72,44.36,43.72,44.36s-4.92-7.94-3-19.95S54.27,7.05,61.47,5.94C78.17,3,87,11.85,87,11.85s10.89-9.6,25.53-6.14c11.9,3.19,25.78,14.08,16.29,35.69,0,0,26.36-2.58,30.58,18.1s-7.2,25.31-11.42,28.82c0,0,8.08,21.05-3.34,31.58s-29.17,10.52-44.46-4.25c0,0,.7,21.79-10,33.43s-28.3.92-31.28-7.39c0,0,22.32-14.22,18.45-27,0,0-10.72,13.11-28.3,14.4C49,129.13,10.51,127.29,25.27,91.82Z" transform="translate(-9.55 -3.46)"/><path class="cls-3" d="M149.84,96.58H23.54a19,19,0,0,1,1.73-4.76s-7.65-4.89-9.94-9.31H155.09s-5.94,5.56-7.15,5.81C147.94,88.32,150.16,93.8,149.84,96.58Z" transform="translate(-9.55 -3.46)"/><path class="cls-3" d="M45.7,15.26l1,113.72s16.74,1.27,31.53-14.25L76.63,6.42S58.63,1,45.7,15.26Z" transform="translate(-9.55 -3.46)"/></g></svg>