<svg id="Layer_1" data-name="Layer 1" xmlns="http://www.w3.org/2000/svg" viewBox="0 0 992.06 321.98"><defs><style>.cls-1{fill:#0f573a;stroke:#bb9a4f;stroke-width:6px;}.cls-1,.cls-3{stroke-miterlimit:10;}.cls-2{fill:#bb9a4f;}.cls-3{font-size:232.07px;fill:#fff;stroke:#231f20;stroke-width:7px;font-family:NaratifCondensed-BoldItalic, Naratif Condensed;font-weight:700;font-style:italic;}.cls-4{letter-spacing:0em;}.cls-5{letter-spacing:-0.01em;}</style></defs><path class="cls-1" d="M34.88,188.16S-.58,167.43,6.94,130.67c14-51.62,65.55-43,65.55-43s-10-16.82-6.09-42.24S94,8.66,108.67,6.32c34-6.26,51.94,12.51,51.94,12.51s22.21-20.33,52-13c24.26,6.74,52.55,29.82,33.21,75.57,0,0,53.73-5.48,62.33,38.32s-14.69,53.58-23.28,61c0,0,16.47,44.58-6.81,66.87s-59.46,22.29-90.63-9c0,0,1.44,46.15-20.41,70.78s-57.68,2-63.76-15.64c0,0,45.49-30.11,37.61-57.09,0,0-21.85,27.76-57.67,30.5C83.24,267.15,4.79,263.24,34.88,188.16Z" transform="translate(-2.89 -1.24)"/><path class="cls-2" d="M288.77,198.23H31.35a41.47,41.47,0,0,1,3.53-10.07s-15.6-10.37-20.26-19.72H299.49s-12.11,11.76-14.58,12.29C284.91,180.73,289.44,192.34,288.77,198.23Z" transform="translate(-2.89 -1.24)"/><path class="cls-2" d="M76.52,26l2,240.79s34.13,2.69,64.26-30.18L139.55,7.33S102.87-4.11,76.52,26Z" transform="translate(-2.89 -1.24)"/><text class="cls-3" transform="translate(326.73 235.48) scale(0.96 1)">N<tspan class="cls-4" x="94.45" y="0">D</tspan><tspan x="181.25" y="0">SM</tspan><tspan class="cls-5" x="397.07" y="0">A</tspan><tspan x="475.27" y="0">SH</tspan></text></svg>