<svg xmlns="http://www.w3.org/2000/svg" viewBox="0 0 614.69 321.98"><defs><style>.cls-1{fill:#0f573a;stroke:#bb9a4f;}.cls-1,.cls-3{stroke-miterlimit:10;stroke-width:6px;}.cls-2{fill:#bb9a4f;}.cls-3{font-size:188px;fill:#fff;stroke:#231f20;font-family:Anton-Regular, Anton;letter-spacing:-0.05em;}</style></defs><g id="Layer_2" data-name="Layer 2"><path class="cls-1" d="M195.73,190s-35.46-20.73-27.94-57.49c14-51.62,65.56-43,65.56-43s-10-16.82-6.09-42.24,27.58-36.76,42.26-39.1c34-6.26,51.94,12.51,51.94,12.51s22.21-20.33,52-13c24.26,6.74,52.56,29.82,33.22,75.57,0,0,53.73-5.48,62.33,38.32s-14.69,53.58-23.29,61c0,0,16.48,44.58-6.8,66.87s-59.47,22.28-90.63-9c0,0,1.43,46.14-20.42,70.78s-57.67,2-63.76-15.64c0,0,45.49-30.11,37.61-57.09,0,0-21.85,27.76-57.67,30.5C244.09,269,165.64,265.08,195.73,190Z" transform="translate(-5.7 -3.08)"/><path class="cls-2" d="M449.63,200.07H192.2A42,42,0,0,1,195.73,190s-15.59-10.37-20.26-19.73H460.34s-12.11,11.77-14.58,12.3C445.76,182.57,450.29,194.18,449.63,200.07Z" transform="translate(-5.7 -3.08)"/><path class="cls-2" d="M237.37,27.88l2,240.79s34.12,2.69,64.25-30.18L300.41,9.17S263.72-2.27,237.37,27.88Z" transform="translate(-5.7 -3.08)"/></g><g id="Layer_1" data-name="Layer 1"><text class="cls-3" transform="translate(3 251.86) scale(0.96 1)">NDSMASH</text></g></svg>