<svg xmlns="http://www.w3.org/2000/svg" viewBox="0 0 715.3 197.84"><defs><style>.cls-1{font-size:156px;fill:#fff;stroke:#bb9a4e;stroke-width:2px;font-family:Anton-Regular, Anton;letter-spacing:0.01em;}.cls-1,.cls-2{stroke-miterlimit:10;}.cls-2{fill:#0f573a;stroke:#bb9a4f;stroke-width:3px;}.cls-3{fill:#bb9a4f;}</style></defs><g id="Layer_1" data-name="Layer 1"><text class="cls-1" transform="translate(156.48 146.03) scale(0.96 1)">NDSMASH</text></g><g id="Layer_2" data-name="Layer 2"><path class="cls-2" d="M25.27,91.82S7.87,82,11.56,64.67C18.41,40.3,43.72,44.36,43.72,44.36s-4.92-7.94-3-19.95S54.27,7.05,61.47,5.94C78.17,3,87,11.85,87,11.85s10.89-9.6,25.53-6.14c11.9,3.19,25.78,14.08,16.29,35.69,0,0,26.36-2.58,30.58,18.1s-7.2,25.31-11.42,28.82c0,0,8.08,21.05-3.34,31.58s-29.17,10.52-44.46-4.25c0,0,.7,21.79-10,33.43s-28.3.92-31.28-7.39c0,0,22.32-14.22,18.45-27,0,0-10.72,13.11-28.3,14.4C49,129.13,10.51,127.29,25.27,91.82Z" transform="translate(-9.55 2.67)"/><path class="cls-3" d="M149.84,96.58H23.54a19,19,0,0,1,1.73-4.76s-7.65-4.89-9.94-9.31H155.09s-5.94,5.56-7.15,5.81C147.94,88.32,150.16,93.8,149.84,96.58Z" transform="translate(-9.55 2.67)"/><path class="cls-3" d="M45.7,15.26l1,113.72s16.74,1.27,31.53-14.25L76.63,6.42S58.63,1,45.7,15.26Z" transform="translate(-9.55 2.67)"/></g></svg>