<svg xmlns="http://www.w3.org/2000/svg" viewBox="0 0 1162.24 321.98"><defs><style>.cls-1{fill:#0f573a;stroke:#bb9a4f;stroke-width:6px;}.cls-1,.cls-3{stroke-miterlimit:10;}.cls-2{fill:#bb9a4f;}.cls-3{font-size:188px;fill:#fff;stroke:#231f20;stroke-width:10px;font-family:CartoonSlam, Cartoon Slam;letter-spacing:-0.07em;}</style></defs><g id="Layer_2" data-name="Layer 2"><path class="cls-1" d="M322.44,187.44S287,166.72,294.5,130c14-51.62,65.55-43,65.55-43S350,70.13,354,44.71,381.54,8,396.23,5.6c34-6.25,51.94,12.52,51.94,12.52s22.21-20.34,52-13c24.26,6.74,52.56,29.81,33.21,75.57,0,0,53.74-5.48,62.33,38.32s-14.68,53.57-23.28,61c0,0,16.48,44.58-6.81,66.87s-59.46,22.29-90.62-9c0,0,1.43,46.14-20.42,70.78S397,310.62,390.86,293c0,0,45.49-30.11,37.61-57.1,0,0-21.85,27.77-57.67,30.5C370.8,266.43,292.35,262.52,322.44,187.44Z" transform="translate(11.7 -0.52)"/><path class="cls-2" d="M576.33,197.52H318.91a41.63,41.63,0,0,1,3.53-10.08s-15.59-10.36-20.26-19.72H587.05S574.94,179.48,572.47,180C572.47,180,577,191.63,576.33,197.52Z" transform="translate(11.7 -0.52)"/><path class="cls-2" d="M364.08,25.32l2,240.8s34.13,2.68,64.26-30.19L427.12,6.61S390.43-4.82,364.08,25.32Z" transform="translate(11.7 -0.52)"/></g><g id="Layer_1" data-name="Layer 1"><text class="cls-3" transform="translate(5 226.71) scale(0.96 1)">NDSMASH</text></g></svg>